<?xml version="1.0" standalone="no"?>
<!DOCTYPE svg PUBLIC "-//W3C//DTD SVG 20010904//EN"
 "http://www.w3.org/TR/2001/REC-SVG-20010904/DTD/svg10.dtd">
<svg version="1.0" xmlns="http://www.w3.org/2000/svg"
 width="2480.000000pt" height="2980.000000pt" viewBox="0 0 2480.000000 2980.000000"
 preserveAspectRatio="xMidYMid meet">

<g transform="translate(0.000000,2980.000000) scale(0.100000,-0.100000)"
fill="#000000" stroke="none">
<path d="M12470 24333 c-20 -6 -75 -27 -127 -48 -33 -14 -43 -23 -43 -42 0
-27 21 -31 41 -7 7 9 38 27 68 41 60 26 102 25 156 -3 21 -11 36 -12 66 -4 24
7 46 7 56 2 10 -5 33 -12 51 -15 39 -8 102 -56 102 -78 0 -10 11 -20 25 -23
25 -6 51 -41 37 -50 -4 -3 -26 0 -48 5 -85 22 -86 22 -96 5 -10 -18 -63 -22
-73 -5 -4 6 3 21 15 34 21 22 21 25 6 31 -18 7 -85 -1 -95 -12 -3 -3 4 -13 17
-21 49 -33 12 -66 -71 -62 -29 2 -62 0 -73 -4 -15 -5 -27 -2 -39 9 -11 11 -35
18 -70 19 -60 2 -85 16 -85 51 0 35 -18 30 -57 -16 l-35 -40 -89 0 c-101 0
-116 5 -175 62 -48 46 -81 49 -76 7 2 -17 -3 -29 -13 -33 -12 -4 -14 -10 -5
-25 16 -31 -11 -39 -150 -40 -147 -2 -281 -15 -365 -37 -143 -38 -233 -69
-280 -99 -27 -17 -64 -37 -82 -44 -54 -22 -186 -174 -214 -247 -9 -24 -32 -62
-52 -86 -19 -24 -43 -59 -52 -78 -21 -41 -154 -175 -181 -183 -11 -3 -59 -13
-109 -22 -284 -51 -705 -159 -994 -255 -741 -245 -1497 -616 -2186 -1074
-1269 -841 -2428 -2015 -3320 -3361 -708 -1068 -1195 -2141 -1433 -3155 -115
-491 -160 -878 -149 -1299 10 -414 62 -691 188 -1012 150 -383 390 -659 769
-886 204 -122 428 -222 895 -398 450 -170 467 -177 640 -255 306 -138 542
-289 809 -517 203 -173 495 -485 642 -686 35 -47 44 -68 44 -101 0 -22 7 -68
14 -101 8 -33 17 -91 21 -130 4 -38 13 -95 20 -125 7 -30 16 -93 20 -140 4
-47 13 -114 20 -150 8 -36 16 -97 20 -137 3 -40 11 -87 16 -105 6 -18 16 -73
24 -123 13 -94 38 -209 57 -260 5 -16 16 -57 23 -90 14 -60 35 -128 60 -195 7
-19 25 -75 40 -125 14 -49 34 -110 43 -135 9 -25 22 -63 28 -85 18 -61 39
-114 79 -201 62 -133 79 -167 116 -224 20 -30 58 -91 84 -135 27 -44 64 -102
82 -129 18 -26 33 -59 33 -71 0 -15 12 -32 32 -47 18 -13 64 -55 102 -94 39
-39 90 -83 114 -98 45 -28 99 -94 108 -133 4 -14 22 -32 43 -43 20 -10 55 -38
79 -62 42 -43 44 -49 83 -214 22 -93 69 -299 104 -459 297 -1350 433 -1843
638 -2319 145 -337 299 -583 487 -779 275 -287 602 -443 975 -463 450 -24 983
183 1647 642 371 257 726 536 1643 1293 517 427 1227 1002 1405 1138 30 23 75
49 100 59 25 9 61 29 80 44 51 40 96 60 148 69 26 5 68 14 95 20 26 6 68 16
95 22 26 6 97 13 158 14 61 2 135 10 165 18 41 12 118 15 316 16 233 1 266 3
305 20 23 11 66 22 93 26 28 3 68 12 90 19 235 79 319 94 520 94 146 1 194 4
255 20 133 35 190 53 195 63 4 5 13 9 21 9 8 0 36 9 62 21 26 11 72 32 102 45
30 14 62 29 71 34 9 5 54 23 100 41 46 18 95 41 108 51 13 10 28 18 33 18 18
0 275 130 288 145 7 8 18 15 24 15 6 0 35 16 65 35 46 31 103 64 216 126 46
26 117 62 145 73 14 6 57 32 95 57 39 25 113 65 164 88 122 55 170 89 229 160
95 119 165 248 210 391 30 96 40 133 73 270 10 41 22 93 28 115 57 219 77 307
92 410 10 66 23 136 28 155 6 19 11 101 11 183 0 138 -2 151 -25 197 -14 27
-25 51 -25 54 0 2 62 43 138 92 497 318 1043 690 1359 925 1219 909 1792 1684
1933 2616 28 180 37 518 21 714 -55 655 -291 1273 -747 1961 -461 695 -1484
1892 -2469 2887 -1493 1509 -2904 2639 -4495 3597 l-115 69 -6 80 c-3 44 -12
96 -21 115 -8 19 -18 69 -22 111 -9 102 -48 244 -92 335 -20 41 -40 77 -45 79
-4 3 -14 -2 -23 -11 -27 -26 -59 -14 -71 27 -5 21 -18 46 -27 56 -22 24 -23
49 -2 57 11 4 19 -3 27 -23 14 -39 77 -69 77 -37 0 22 -40 66 -61 66 -10 0
-19 5 -19 11 0 6 -26 38 -58 72 -100 106 -112 124 -106 157 5 20 0 37 -15 58
-11 16 -25 41 -31 56 -11 29 -35 35 -44 10 -11 -28 -6 -41 29 -77 35 -36 44
-61 25 -72 -6 -4 -21 1 -33 9 -12 9 -37 26 -56 38 -32 21 -33 23 -27 70 7 48
6 49 -26 63 -18 7 -46 27 -63 43 -16 16 -48 41 -70 55 -62 41 -75 53 -75 71 0
26 37 19 93 -18 29 -19 66 -40 82 -47 17 -7 38 -19 48 -28 34 -28 31 1 -4 32
-115 103 -207 171 -247 184 -25 7 -50 17 -56 21 -27 21 -257 92 -295 92 -12 0
-32 7 -45 16 -13 8 -60 27 -104 42 -71 24 -85 33 -117 75 -20 26 -40 47 -44
47 -8 0 -152 142 -260 256 -18 20 -52 44 -76 54 -24 10 -46 23 -49 29 -4 6
-14 11 -22 11 -9 0 -46 18 -83 40 -76 44 -141 59 -271 66 -46 2 -89 5 -95 7
-5 2 -17 2 -25 0z m1268 -827 c15 -8 34 -17 42 -20 61 -25 177 -95 186 -113 6
-13 19 -32 28 -42 10 -11 15 -24 12 -29 -9 -15 -45 -2 -57 19 -14 26 -62 49
-102 49 -28 0 -51 13 -111 62 -42 34 -76 67 -76 75 0 17 45 17 78 -1z m435
-238 c9 -7 20 -28 23 -45 6 -28 4 -33 -13 -33 -26 0 -77 54 -70 74 8 19 37 21
60 4z m497 -654 c7 -19 22 -41 35 -50 26 -17 67 -116 58 -139 -9 -26 -25 -13
-75 61 -51 73 -75 132 -65 158 10 24 35 8 47 -30z m-2222 -786 c19 -19 14 -28
-15 -28 -35 0 -58 14 -49 29 9 15 49 14 64 -1z m-1632 -632 c3 -8 0 -24 -6
-36 -16 -29 -35 -11 -26 24 7 28 23 34 32 12z m-91 -66 c4 -17 13 -30 22 -30
25 0 8 -25 -20 -28 -22 -3 -27 1 -27 20 0 13 -3 33 -6 46 -5 16 -2 22 9 22 9
0 18 -13 22 -30z m170 -221 c0 -7 -8 -15 -17 -17 -18 -3 -25 18 -11 32 10 10
28 1 28 -15z m-140 1 c3 -5 1 -10 -4 -10 -6 0 -11 5 -11 10 0 6 2 10 4 10 3 0
8 -4 11 -10z m-259 -15 c24 -19 102 -55 119 -55 21 0 33 -23 24 -47 -11 -30
-44 -29 -73 2 -13 14 -30 25 -37 25 -16 1 -89 66 -89 80 0 15 34 12 56 -5z
m520 -76 c-1 -38 4 -54 17 -64 18 -13 18 -14 -3 -35 -12 -12 -23 -20 -25 -18
-3 3 -8 110 -6 146 2 45 17 20 17 -29z m-272 -95 c25 -10 0 -34 -35 -34 -33 0
-38 14 -11 29 20 12 25 13 46 5z m-202 -80 c-2 -27 2 -45 12 -53 22 -19 46 -6
46 24 0 15 7 28 18 32 9 4 20 11 24 16 7 12 64 14 75 4 3 -4 8 -31 11 -60 4
-52 5 -53 58 -82 30 -16 54 -33 54 -37 0 -4 5 -8 10 -8 6 0 10 7 10 15 0 8 6
15 14 15 15 0 26 -21 26 -47 0 -23 46 -117 64 -133 9 -7 30 -37 47 -66 42 -74
170 -188 261 -233 56 -28 74 -41 76 -60 2 -13 -2 -27 -9 -32 -7 -4 -15 -29
-18 -56 -7 -52 -32 -70 -55 -38 -7 10 -22 16 -37 13 -22 -3 -25 -9 -33 -74 -8
-67 -11 -72 -43 -89 -18 -10 -33 -24 -33 -32 0 -17 19 -56 31 -63 10 -7 0 -50
-12 -50 -14 0 -10 -30 6 -46 10 -11 15 -36 15 -80 0 -45 5 -70 15 -80 17 -17
20 -44 5 -44 -5 0 -10 -25 -10 -55 0 -34 -4 -55 -11 -55 -8 0 -9 -15 -4 -46 4
-30 3 -44 -3 -40 -14 8 -25 -47 -17 -82 3 -17 0 -40 -10 -58 -8 -16 -15 -34
-15 -40 0 -23 -26 -64 -41 -64 -9 0 -31 -13 -49 -30 -23 -22 -38 -28 -55 -24
-15 4 -24 0 -28 -10 -8 -20 -43 -20 -87 2 -31 15 -35 22 -38 62 -2 30 -10 48
-23 58 -10 7 -19 20 -19 29 0 18 -32 128 -61 211 -11 30 -19 68 -19 84 0 17
-12 56 -26 85 -14 30 -32 86 -40 124 l-14 70 30 55 c30 55 39 91 20 79 -5 -3
-18 -1 -29 4 -19 11 -28 48 -35 144 -1 26 -8 53 -14 59 -7 7 -12 20 -12 30 0
10 -4 18 -9 18 -5 0 -13 36 -17 80 -3 44 -11 83 -15 86 -5 3 -9 17 -9 32 0 15
-7 38 -16 50 -13 19 -16 53 -17 170 -2 238 3 325 21 345 24 27 37 15 34 -29z
m482 -22 c3 -5 22 -9 42 -10 51 -2 74 -26 74 -76 1 -39 18 -76 35 -76 4 0 16
-9 26 -21 14 -16 17 -33 13 -84 l-4 -64 26 9 c29 11 44 6 44 -15 0 -8 9 -32
20 -54 12 -21 22 -52 23 -67 2 -24 -3 -30 -22 -32 -12 -2 -33 -1 -45 2 -28 7
-140 108 -159 144 -110 207 -117 224 -117 281 0 32 3 61 7 64 9 10 31 9 37 -1z
m-927 -74 c7 -6 13 -16 13 -24 0 -10 -7 -10 -37 2 -46 19 -57 29 -49 43 7 11
49 -1 73 -21z m287 -150 c10 -40 19 -89 20 -108 1 -32 -1 -35 -24 -32 -29 3
-61 37 -54 57 3 7 -1 26 -9 41 -12 23 -12 31 1 58 18 37 32 56 41 56 4 0 15
-33 25 -72z m-198 1 c16 -6 41 -25 56 -43 24 -30 25 -35 16 -85 -13 -73 -8
-82 47 -80 53 3 68 -7 40 -27 -11 -7 -29 -22 -41 -31 -11 -10 -33 -29 -50 -43
-35 -30 -76 -92 -92 -139 -15 -43 2 -209 27 -266 17 -39 72 -95 93 -95 5 0 22
9 37 20 l28 19 36 -25 c45 -30 46 -41 5 -52 -29 -7 -33 -13 -34 -43 0 -19 -4
-47 -8 -62 -9 -36 7 -57 44 -57 27 0 43 14 77 66 10 17 13 17 22 4 19 -27 11
-72 -21 -122 -41 -62 -69 -78 -130 -71 -44 5 -50 9 -86 62 -57 82 -58 86 -28
66 22 -15 31 -16 56 -5 37 15 38 34 2 91 -27 42 -56 69 -116 112 -73 51 -91
102 -102 299 -6 88 -4 101 17 145 18 37 26 78 34 183 9 109 26 190 40 190 1 0
15 -5 31 -11z m2298 -36 c5 -11 -1 -23 -15 -34 -26 -19 -20 -49 10 -49 29 0
81 -48 81 -75 0 -12 -10 -35 -22 -50 -20 -26 -25 -27 -87 -23 -82 6 -166 -18
-166 -48 0 -15 -8 -20 -36 -22 -40 -3 -89 12 -89 28 0 6 12 15 27 21 44 17
173 158 180 197 3 19 13 36 22 40 9 3 20 11 24 19 12 19 64 16 71 -4z m143 -9
c3 -9 0 -20 -8 -25 -21 -13 -29 -11 -29 9 0 33 26 44 37 16z m-2161 -341 c-8
-101 -20 -168 -28 -165 -5 1 -13 2 -19 2 -16 0 -3 141 19 202 22 64 36 46 28
-39z m-449 -335 c-3 -8 -6 -5 -6 6 -1 11 2 17 5 13 3 -3 4 -12 1 -19z m93
-130 c0 -28 -43 13 -55 52 -7 23 -5 22 24 -9 17 -19 31 -38 31 -43z m54 -49
c24 -29 35 -69 19 -69 -10 0 -57 60 -66 83 -11 28 19 20 47 -14z m1933 -566
c85 -12 109 -74 51 -130 -30 -29 -37 -31 -80 -26 -40 5 -53 12 -89 51 -23 26
-37 48 -30 50 21 7 41 33 41 54 0 18 4 20 33 14 17 -4 51 -9 74 -13z m-257
-83 c0 -11 5 -20 10 -20 6 0 10 -9 10 -20 0 -18 -3 -19 -20 -10 -21 11 -29 70
-10 70 6 0 10 -9 10 -20z m-990 -211 c0 -16 -4 -29 -9 -29 -10 0 -22 51 -14
63 9 15 23 -5 23 -34z m-1 -111 c1 -15 -3 -30 -9 -33 -6 -4 -10 16 -9 52 1 44
3 52 9 33 4 -14 8 -37 9 -52z m-3321 -3862 c73 -26 225 -109 263 -143 48 -43
137 -161 188 -250 51 -88 95 -206 110 -297 13 -73 7 -204 -11 -266 -27 -92
-99 -237 -175 -351 -91 -137 -126 -169 -228 -209 -33 -14 -69 -30 -80 -37 -11
-7 -47 -13 -80 -13 -49 0 -75 -7 -143 -40 -46 -22 -88 -40 -95 -40 -7 0 -29
-8 -48 -18 -20 -10 -66 -29 -104 -41 -138 -47 -412 -21 -548 51 -101 54 -180
160 -193 260 -8 57 22 322 40 357 8 14 18 45 21 66 4 22 11 45 16 51 19 23 59
167 59 209 0 24 4 47 10 50 13 8 80 110 80 121 0 16 52 108 104 186 91 136
127 171 257 248 67 40 136 76 153 81 17 4 57 16 90 27 72 23 246 23 314 -2z
m8112 -63 c48 -6 51 -7 25 -13 -45 -10 -392 7 -412 20 -14 8 27 10 157 5 96
-3 200 -8 230 -12z m-513 -9 c-3 -3 -12 -4 -19 -1 -8 3 -5 6 6 6 11 1 17 -2
13 -5z m-194 -15 c-8 -8 -16 -8 -30 0 -16 9 -14 10 12 11 21 0 26 -3 18 -11z
m898 -138 c69 -36 74 -40 77 -74 4 -40 -12 -77 -32 -77 -8 0 -19 -7 -26 -15
-19 -23 -43 -20 -31 4 14 25 -6 33 -53 20 -46 -13 -56 -33 -56 -116 0 -90 15
-118 60 -118 28 0 37 5 48 28 11 23 19 27 58 27 41 0 57 -11 34 -25 -5 -3 -10
-22 -10 -41 0 -37 -28 -73 -57 -75 -226 -10 -207 -11 -233 18 -34 39 -46 167
-19 194 19 19 19 53 4 178 -5 39 18 84 49 100 46 22 110 13 187 -28z m-397
-19 c64 -44 66 -51 64 -221 -3 -134 -5 -154 -20 -162 -10 -5 -18 -18 -18 -28
0 -10 -9 -26 -20 -36 -16 -14 -23 -15 -34 -6 -17 14 -34 7 -54 -21 -11 -15
-27 -17 -122 -15 -60 1 -114 7 -119 12 -5 6 -11 66 -12 135 -4 128 10 240 33
269 31 39 39 62 27 77 -9 11 -8 15 2 18 8 2 21 7 29 10 8 3 58 2 110 -1 81 -4
101 -9 134 -31z m-651 -47 c32 -23 92 -28 127 -10 17 9 46 15 63 13 l32 -3 0
-112 c0 -107 -1 -113 -24 -129 -20 -14 -23 -23 -18 -60 4 -42 4 -44 -19 -38
-19 5 -24 2 -24 -13 0 -13 11 -22 33 -28 27 -8 32 -15 32 -40 0 -38 -27 -45
-66 -16 -15 12 -35 21 -42 21 -26 0 -38 25 -28 54 9 22 7 29 -15 50 l-26 23
23 17 c13 9 31 16 40 16 11 0 23 15 33 43 29 81 29 81 -48 89 -39 4 -74 4 -78
2 -5 -3 -8 -56 -7 -117 2 -113 -6 -167 -22 -167 -5 0 -15 -11 -21 -25 -6 -14
-16 -25 -22 -25 -19 0 -96 145 -89 168 3 6 13 12 23 12 16 0 18 12 22 108 4
89 8 113 27 145 25 40 60 49 94 22z m951 -496 c-3 -5 -10 -7 -15 -3 -5 3 -7
10 -3 15 3 5 10 7 15 3 5 -3 7 -10 3 -15z m-896 -63 c3 -13 -1 -17 -14 -14
-11 2 -20 11 -22 22 -3 13 1 17 14 14 11 -2 20 -11 22 -22z m687 6 c-3 -8 -5
-18 -5 -23 0 -16 -57 -10 -64 7 -9 23 -2 29 38 29 26 0 35 -4 31 -13z m102 2
c9 -25 -13 -40 -26 -16 -10 19 -6 32 11 32 5 0 11 -7 15 -16z m104 -5 c7 -14
8 -24 1 -31 -15 -15 -32 0 -32 28 0 30 15 31 31 3z m-593 -22 c3 -25 0 -28
-20 -25 -17 2 -24 11 -26 31 -3 25 0 28 20 25 17 -2 24 -11 26 -31z m-128 -1
c0 -3 -4 -8 -10 -11 -5 -3 -10 -1 -10 4 0 6 5 11 10 11 6 0 10 -2 10 -4z
m2831 -61 c38 -13 88 -37 111 -52 24 -15 59 -35 79 -45 64 -33 84 -60 278
-367 12 -18 20 -35 19 -36 -2 -2 -25 -10 -51 -19 -63 -21 -109 -20 -149 3 -20
11 -64 22 -108 26 -145 14 -169 36 -190 178 -6 43 -18 94 -26 113 -8 19 -19
67 -24 107 -5 40 -13 82 -16 95 -8 27 -7 27 77 -3z m-7147 -324 c10 -11 15
-25 11 -32 -12 -19 -9 -183 4 -207 16 -29 49 -28 96 4 39 26 65 26 65 0 0 -8
10 -22 22 -30 20 -14 20 -16 4 -22 -11 -4 -30 0 -47 10 -28 17 -30 16 -54 -2
-20 -16 -38 -20 -86 -17 -33 2 -62 5 -65 7 -2 3 3 21 11 41 18 43 20 157 3
203 -11 32 -6 64 10 64 5 0 17 -9 26 -19z m196 -26 c-15 -16 -27 -22 -33 -16
-17 17 1 41 29 41 l27 0 -23 -25z m-336 -88 c3 -16 6 -41 6 -54 0 -14 12 -48
27 -75 30 -54 23 -71 -27 -66 -20 3 -26 9 -28 36 -3 28 -7 32 -34 32 -29 0
-30 1 -23 33 4 17 9 59 11 92 7 89 11 95 39 61 13 -16 26 -42 29 -59z m-231
43 c-1 -8 -9 -44 -16 -80 -11 -51 -15 -60 -20 -40 -10 43 -16 128 -9 134 12
12 47 1 45 -14z m-373 0 c0 -5 -5 -10 -11 -10 -5 0 -7 5 -4 10 3 6 8 10 11 10
2 0 4 -4 4 -10z m119 -20 c-12 -33 -26 -39 -35 -15 -9 23 3 45 25 45 18 0 19
-3 10 -30z m141 16 c0 -8 -5 -18 -11 -22 -14 -8 -33 11 -25 25 10 16 36 13 36
-3z m-280 -128 c0 -16 -3 -19 -11 -11 -6 6 -8 16 -5 22 11 17 16 13 16 -11z
m1070 -73 c0 -10 -10 -15 -30 -15 -29 0 -38 9 -23 23 13 13 53 7 53 -8z m-530
-21 c0 -14 -5 -24 -11 -22 -6 2 -10 7 -10 11 1 4 1 14 1 22 0 8 5 15 10 15 6
0 10 -12 10 -26z m-530 -30 c0 -8 -7 -14 -15 -14 -15 0 -21 21 -9 33 10 9 24
-2 24 -19z m377 14 c38 -16 37 -16 23 -33 -16 -20 -79 -20 -86 0 -8 21 3 45
20 45 8 0 28 -5 43 -12z m-197 -50 c0 -11 -22 -10 -39 1 -10 7 -7 9 12 8 15
-1 27 -5 27 -9z"/>
<path d="M10590 20050 c0 -5 5 -10 10 -10 6 0 10 5 10 10 0 6 -4 10 -10 10 -5
0 -10 -4 -10 -10z"/>
<path d="M10597 19963 c-12 -12 -7 -50 8 -63 19 -15 35 -5 35 24 0 32 -27 56
-43 39z"/>
<path d="M10906 19384 c-4 -10 -2 -22 3 -27 14 -14 43 0 39 20 -4 24 -34 28
-42 7z"/>
<path d="M10764 19378 c-8 -13 -7 -80 2 -110 3 -10 14 -18 24 -18 27 0 35 40
18 91 -15 45 -31 58 -44 37z"/>
<path d="M11055 19160 c-3 -5 1 -10 9 -10 9 0 16 5 16 10 0 6 -4 10 -9 10 -6
0 -13 -4 -16 -10z"/>
<path d="M10876 19118 c-8 -33 -8 -34 20 -67 14 -17 34 -31 44 -31 24 0 35 31
16 46 -9 6 -16 16 -16 22 0 12 -39 52 -51 52 -4 0 -9 -10 -13 -22z"/>
<path d="M7240 14610 c-8 -5 -29 -10 -45 -10 -46 0 -198 -76 -252 -127 -7 -6
-21 -14 -31 -17 -9 -3 -28 -23 -42 -43 -14 -21 -37 -48 -52 -61 -34 -29 -35
-45 -6 -74 l22 -22 11 44 c10 43 13 45 50 48 29 3 43 -1 52 -14 10 -14 16 -15
25 -6 9 9 7 13 -5 18 -20 7 -24 88 -6 99 17 11 49 -26 49 -57 0 -23 4 -28 24
-28 13 0 37 6 53 14 83 41 153 55 263 56 82 0 102 -4 144 -25 60 -30 76 -31
76 -5 0 35 -38 63 -76 57 -18 -3 -36 -1 -39 4 -4 5 -35 9 -69 9 -44 0 -67 5
-76 15 -7 9 -29 15 -51 15 -34 0 -39 3 -39 23 0 12 4 27 8 32 4 6 57 11 120
11 l112 2 0 -29 c0 -32 14 -36 44 -14 37 28 55 19 58 -27 2 -35 8 -45 31 -56
16 -8 27 -21 27 -33 0 -23 18 -25 27 -4 3 9 -2 24 -11 34 -21 23 -20 37 5 62
l22 22 -24 18 c-13 11 -35 22 -49 25 -14 3 -39 12 -57 20 -61 27 -262 44 -293
24z m-86 -103 c14 -22 -3 -51 -33 -55 -16 -3 -21 2 -21 18 0 29 19 62 32 58 7
-3 16 -12 22 -21z"/>
<path d="M7687 14493 c-4 -3 -4 -30 -1 -59 6 -47 4 -53 -16 -64 -12 -7 -35
-10 -51 -8 -25 4 -27 2 -17 -11 31 -41 65 -74 86 -82 20 -8 71 -96 96 -166 3
-10 13 -29 21 -43 11 -19 15 -61 15 -175 0 -128 -3 -156 -20 -194 -11 -24 -20
-51 -20 -60 -1 -32 -41 -105 -84 -151 -24 -25 -45 -50 -47 -56 -8 -18 -94 -82
-139 -102 -25 -11 -62 -22 -82 -26 -44 -8 -55 -21 -37 -43 10 -11 26 -14 61
-11 38 4 66 17 134 64 47 32 98 67 112 76 15 10 39 31 53 48 37 44 45 21 9
-26 -33 -44 -34 -51 -20 -90 l11 -28 70 70 c75 74 137 167 150 224 4 19 17 62
30 95 19 51 22 80 22 195 0 123 -2 141 -26 203 -15 37 -27 76 -27 86 0 11 -11
33 -25 49 -14 17 -25 39 -25 50 0 24 -34 69 -59 77 -10 3 -30 27 -45 54 -39
73 -106 127 -129 104z m141 -145 c14 -14 16 -54 3 -63 -5 -3 -12 4 -16 15 -8
25 -17 25 -41 -1 -16 -17 -16 -22 -4 -29 8 -6 20 -10 26 -10 6 0 17 -7 24 -15
7 -8 23 -15 35 -15 33 0 48 -22 35 -51 -39 -85 -60 -97 -60 -34 0 24 -5 35
-19 40 -10 3 -31 23 -45 45 -14 22 -31 40 -36 40 -25 0 -7 42 28 64 43 29 53
31 70 14z m106 -264 c10 -26 7 -69 -6 -82 -20 -20 -40 -14 -37 11 2 12 -1 32
-5 44 -4 13 -4 27 -1 33 10 16 42 12 49 -6z m-34 -156 c0 -7 -7 -22 -15 -32
-13 -17 -15 -17 -21 -3 -3 10 -4 24 0 32 7 18 36 20 36 3z m56 -112 c25 -19 8
-50 -30 -54 -24 -3 -26 0 -26 32 0 40 20 48 56 22z m-2 -135 c3 -5 0 -14 -8
-20 -8 -7 -17 -23 -20 -36 -7 -29 -31 -32 -65 -9 l-23 16 28 29 c27 28 76 40
88 20z"/>
<path d="M7195 14355 c-16 -8 -40 -14 -53 -15 -60 -1 -212 -113 -238 -176 -8
-18 -38 -54 -69 -80 -55 -48 -105 -113 -105 -137 0 -7 6 -22 14 -32 13 -18 14
-18 53 2 21 11 53 24 71 28 47 10 64 41 61 114 -3 82 5 89 81 69 55 -14 60
-14 74 1 14 15 55 100 69 144 10 29 33 19 77 -33 23 -27 49 -50 57 -50 8 0 43
25 78 55 34 30 67 55 74 55 7 0 11 -21 11 -59 0 -109 29 -147 89 -117 34 18
67 21 76 7 3 -5 -6 -35 -20 -67 -28 -64 -31 -96 -11 -116 12 -13 67 -39 109
-52 24 -7 21 -23 -5 -37 -38 -19 -108 -92 -108 -112 0 -10 11 -33 24 -50 51
-69 43 -91 -38 -100 -26 -2 -60 -14 -75 -24 -23 -18 -27 -29 -31 -91 -3 -39
-9 -74 -13 -78 -4 -5 -27 2 -51 14 -31 17 -56 22 -87 20 -42 -3 -45 -5 -80
-66 -20 -35 -40 -66 -43 -70 -4 -3 -30 20 -60 51 -29 31 -57 57 -63 57 -6 0
-28 -14 -49 -31 -52 -41 -94 -63 -105 -52 -4 4 -3 27 4 50 8 32 8 45 -2 57
-12 14 -17 14 -48 1 -20 -8 -48 -15 -64 -15 -36 0 -38 23 -8 81 31 63 23 89
-33 108 -26 9 -50 19 -53 23 -4 4 18 33 49 65 31 32 56 66 56 76 0 26 -43 87
-61 87 -27 0 -56 -43 -63 -94 -3 -27 -13 -57 -21 -66 -19 -21 -11 -179 12
-257 21 -70 94 -144 172 -175 77 -30 227 -37 282 -13 23 11 48 15 64 11 17 -4
42 2 79 19 29 14 67 25 84 25 28 0 83 18 122 41 8 5 32 18 52 29 53 29 156
164 215 280 26 53 27 61 28 210 l0 155 -44 80 c-74 132 -171 214 -296 246 -73
19 -203 21 -240 4z"/>
<path d="M6916 14297 c-10 -8 -17 -19 -15 -26 3 -9 9 -8 23 2 10 8 17 19 15
26 -3 9 -9 8 -23 -2z"/>
<path d="M6842 14239 c2 -7 10 -15 17 -17 8 -3 12 1 9 9 -2 7 -10 15 -17 17
-8 3 -12 -1 -9 -9z"/>
<path d="M6777 14213 c-11 -11 -8 -93 3 -93 6 0 22 7 35 16 33 22 35 69 3 78
-29 7 -33 7 -41 -1z"/>
<path d="M6710 14191 c0 -4 -11 -20 -25 -35 -29 -31 -25 -46 11 -46 22 0 24 4
24 45 0 25 -2 45 -5 45 -3 0 -5 -4 -5 -9z"/>
<path d="M7189 14111 c-49 -10 -104 -44 -104 -64 0 -10 16 -25 35 -35 21 -10
36 -26 38 -39 3 -18 12 -23 58 -29 30 -3 57 -4 60 -2 12 13 -11 37 -48 52 -41
15 -41 16 -23 36 24 27 51 25 87 -5 16 -13 47 -30 69 -37 23 -6 48 -22 56 -35
14 -21 14 -26 -1 -48 -18 -27 -44 -32 -65 -12 -11 10 -12 1 -7 -53 9 -95 -5
-134 -60 -166 -41 -24 -81 -38 -145 -51 -30 -6 -89 38 -89 66 0 10 -11 39 -25
64 -13 26 -25 62 -26 79 -2 36 22 115 47 153 15 23 12 45 -5 45 -15 0 -111
-97 -111 -111 0 -8 -10 -32 -22 -54 -19 -34 -22 -56 -23 -150 0 -108 0 -111
33 -157 41 -59 62 -63 62 -10 0 59 34 80 73 45 29 -27 144 -22 164 7 11 16 18
18 34 9 25 -13 41 -1 76 54 15 24 30 37 41 35 23 -4 27 -36 8 -57 -8 -9 -18
-36 -22 -60 l-7 -43 34 17 c55 28 97 75 115 127 8 26 20 50 25 53 15 10 11
179 -6 220 -24 57 -93 118 -156 137 -71 22 -126 28 -170 19z"/>
<path d="M6606 14028 c-9 -12 -16 -32 -16 -45 0 -22 1 -22 38 -6 47 19 45 16
31 47 -15 32 -33 33 -53 4z"/>
<path d="M6660 13903 c0 -46 -14 -59 -45 -45 -36 17 -42 15 -61 -14 -27 -40
-7 -48 62 -25 l59 19 3 46 c2 28 -1 46 -7 46 -6 0 -11 -12 -11 -27z"/>
<path d="M7305 13920 c3 -5 8 -10 11 -10 2 0 4 5 4 10 0 6 -5 10 -11 10 -5 0
-7 -4 -4 -10z"/>
<path d="M7066 13904 c-8 -22 -8 -24 8 -24 12 0 26 20 26 36 0 12 -29 2 -34
-12z"/>
<path d="M6586 13731 c-23 -25 -13 -41 25 -41 27 0 30 3 27 27 -4 34 -28 40
-52 14z"/>
<path d="M6495 13684 c-20 -48 -19 -64 4 -64 27 0 43 24 39 61 -4 46 -24 47
-43 3z"/>
<path d="M6573 13644 c-7 -18 11 -39 26 -30 17 11 13 46 -4 46 -9 0 -18 -7
-22 -16z"/>
<path d="M7230 13583 c-8 -4 -21 -14 -28 -25 -9 -12 -26 -18 -53 -18 -38 0
-79 -26 -79 -50 0 -20 42 -32 88 -25 46 7 135 46 146 64 7 11 -32 61 -47 60
-7 0 -19 -3 -27 -6z"/>
<path d="M6464 13568 c-5 -7 -10 -82 -12 -165 -4 -150 -4 -154 22 -197 33 -56
72 -88 105 -84 21 2 27 10 32 41 3 21 13 45 21 53 12 13 21 11 69 -16 29 -16
63 -30 74 -30 12 0 45 -6 75 -14 58 -15 113 -11 107 8 -2 6 -44 23 -94 37
-120 34 -174 74 -204 145 -12 30 -25 57 -30 60 -18 11 -78 -8 -84 -27 -4 -10
-14 -19 -24 -19 -15 0 -19 11 -24 57 -3 32 -4 76 0 98 4 30 1 44 -10 53 -12
11 -17 10 -23 0z"/>
<path d="M7287 13232 c-9 -10 -17 -23 -17 -28 0 -6 -14 -29 -32 -52 -22 -28
-40 -42 -55 -42 -31 0 -40 26 -17 51 26 29 5 40 -69 36 -61 -4 -107 -33 -107
-68 0 -32 -42 -69 -85 -75 -66 -9 -85 -14 -85 -23 0 -31 176 -44 228 -17 17 9
46 16 65 16 19 0 55 11 81 25 26 14 59 25 74 25 15 0 78 16 141 37 l113 37
-67 17 c-73 19 -81 24 -87 54 -5 28 -58 33 -81 7z m-177 -132 c0 -13 -7 -20
-20 -20 -13 0 -20 7 -20 20 0 13 7 20 20 20 13 0 20 -7 20 -20z"/>
<path d="M7535 13160 c-3 -6 1 -7 9 -4 18 7 21 14 7 14 -6 0 -13 -4 -16 -10z"/>
<path d="M15272 14234 c-19 -13 -22 -24 -22 -89 0 -40 3 -81 6 -89 23 -60 106
-21 119 56 9 58 9 78 -4 111 -8 22 -17 27 -44 27 -18 0 -43 -7 -55 -16z"/>
<path d="M14692 13980 c0 -14 2 -19 5 -12 2 6 2 18 0 25 -3 6 -5 1 -5 -13z"/>
<path d="M12530 24180 c0 -5 4 -10 9 -10 5 0 18 -3 28 -7 16 -6 16 -5 4 10
-15 19 -41 23 -41 7z"/>
<path d="M12424 24146 c-8 -22 3 -33 18 -18 9 9 9 15 0 24 -9 9 -13 7 -18 -6z"/>
<path d="M20562 17957 c11 -99 68 -179 393 -557 126 -146 294 -344 375 -440
947 -1132 1518 -2149 1724 -3070 164 -738 96 -1392 -209 -1999 -31 -63 -68
-132 -82 -154 -25 -39 -25 -41 -7 -54 54 -40 186 -114 197 -110 7 2 43 62 80
133 191 359 301 717 343 1114 19 183 14 566 -10 745 -92 689 -359 1391 -814
2140 -341 560 -687 1022 -1317 1755 -305 354 -390 460 -413 507 l-16 33 -124
0 -125 0 5 -43z"/>
<path d="M1481 14878 c-81 -388 -93 -816 -35 -1188 82 -527 307 -1032 636
-1432 109 -132 323 -340 461 -446 193 -151 456 -303 684 -398 128 -54 286
-105 294 -97 6 7 69 213 69 226 0 3 -37 18 -82 33 -210 69 -449 187 -648 319
-169 112 -273 197 -411 335 -377 376 -623 841 -733 1385 -42 205 -51 314 -50
585 0 272 13 404 58 613 17 77 20 110 12 112 -11 4 -225 55 -231 55 -1 0 -12
-46 -24 -102z"/>
</g>
</svg>
